<svg width="130" height="80" fill="none" xmlns="http://www.w3.org/2000/svg"><path fill-rule="evenodd" clip-rule="evenodd" d="M15.445 68.065c-.377 0-.84-.072-1.39-.216-.549-.144-1.09-.448-1.621-.914-.532-.465-.987-1.189-1.365-2.17l-.643-1.65H3.218l-2.06 4.823H0l7.208-16.754h.772l5.663 13.581c.412.948.807 1.612 1.184 1.993.378.38.927.604 1.649.672v.508a4.97 4.97 0 0 1-.477.089 3.97 3.97 0 0 1-.554.038ZM3.604 62.099h6.307l-3.089-7.36-3.218 7.36Zm16.347 5.839V57.022h-1.288c-.772 0-1.416.217-1.93.648-.515.432-.772 1.061-.772 1.891h-.516v-1.523c0-.508.13-.973.387-1.396.257-.423.772-.634 1.544-.634h9.139v1.014h-4.248v10.916h-2.316Zm23.219.508c-1.613 0-2.724-.39-3.334-1.168-.61-.779-.914-1.828-.914-3.148v-5.457l-4.247 9.265h-.515l-4.376-9.52v9.52h-1.03v-11.93H31.2l3.86 8.376 3.862-8.376h2.317v8.122c0 .627.082 1.231.244 1.815.164.584.391 1.062.683 1.434.292.372.626.559 1.004.559v.508Zm7.26-.254c-1.202 0-2.223-.28-3.064-.838a5.429 5.429 0 0 1-1.931-2.26c-.446-.947-.67-1.988-.67-3.121 0-1.151.224-2.196.67-3.135a5.45 5.45 0 0 1 1.931-2.247c.84-.558 1.862-.837 3.063-.837s2.223.279 3.063.837a5.443 5.443 0 0 1 1.931 2.247c.447.939.67 1.984.67 3.134 0 1.134-.224 2.175-.67 3.123a5.422 5.422 0 0 1-1.93 2.258c-.841.56-1.863.839-3.064.839Zm0-1.016c.651 0 1.217-.233 1.699-.698.48-.465.853-1.092 1.119-1.878.266-.787.399-1.663.399-2.627 0-.982-.133-1.862-.4-2.64-.265-.779-.638-1.4-1.118-1.866a2.362 2.362 0 0 0-1.7-.698c-.635 0-1.197.232-1.686.698-.489.465-.866 1.087-1.132 1.866-.267.778-.4 1.658-.4 2.64 0 .964.133 1.84.4 2.627.266.786.643 1.413 1.132 1.878.49.465 1.051.698 1.686.698Zm13.642 1.016c-1.27 0-2.324-.28-3.166-.838a5.08 5.08 0 0 1-1.88-2.26c-.41-.947-.617-1.988-.617-3.121 0-1.151.206-2.196.618-3.135a5.096 5.096 0 0 1 1.88-2.247c.84-.558 1.896-.837 3.165-.837.91 0 1.678.067 2.305.202.626.136 1.102.364 1.428.686.326.322.515.715.567 1.18.051.466.077 1.172.077 2.12h-.515c-.069-1.083-.416-1.883-1.042-2.399-.627-.516-1.395-.774-2.304-.774-.858 0-1.562.232-2.112.698-.549.465-.956 1.087-1.222 1.866-.266.778-.399 1.658-.399 2.64 0 .964.133 1.84.399 2.627.266.786.673 1.413 1.222 1.878.55.465 1.254.698 2.112.698.91 0 1.647-.177 2.213-.533.567-.355 1.073-.855 1.52-1.497l.514.38c-.378.643-.806 1.16-1.287 1.548-.48.39-1.008.673-1.583.851a6.4 6.4 0 0 1-1.893.267Zm12.975 4.569v-4.57c-1.373-.033-2.519-.33-3.437-.888-.918-.558-1.605-1.303-2.059-2.234-.455-.93-.682-1.963-.682-3.097 0-1.15.227-2.187.682-3.11.454-.921 1.141-1.662 2.059-2.22.918-.559 2.064-.855 3.437-.888h2.317c1.373.033 2.518.33 3.437.888.918.558 1.604 1.299 2.058 2.22.456.923.683 1.96.683 3.11 0 1.134-.228 2.167-.683 3.097a5.294 5.294 0 0 1-2.058 2.234c-.919.559-2.064.855-3.437.889v4.569h-2.317Zm.026-5.458V56.642c-.859.085-1.566.355-2.124.812-.558.457-.97 1.066-1.236 1.828-.266.761-.399 1.658-.399 2.69 0 1.016.133 1.909.4 2.679.265.77.677 1.378 1.235 1.827.558.448 1.265.724 2.124.825Zm2.265 0c.875-.102 1.588-.377 2.137-.825.549-.449.956-1.057 1.222-1.827s.4-1.663.4-2.678c0-1.033-.134-1.93-.4-2.691-.266-.761-.673-1.37-1.222-1.828-.55-.457-1.262-.727-2.137-.812v10.661Zm13.952.889c-1.201 0-2.2-.28-2.999-.838-.798-.559-1.398-1.312-1.802-2.26-.403-.947-.605-1.988-.605-3.121 0-1.151.206-2.196.618-3.135.412-.94 1.004-1.688 1.776-2.247.773-.558 1.69-.837 2.755-.837 1.167 0 2.132.215 2.896.647.764.431 1.33 1.062 1.699 1.891.37.829.553 1.844.553 3.046l-.05 1.015h-7.8c0 1.388.303 2.539.913 3.453.609.913 1.463 1.37 2.561 1.37.84 0 1.54-.177 2.098-.533.558-.355 1.06-.855 1.506-1.497l.515.38c-.378.643-.802 1.16-1.274 1.548-.472.39-.987.673-1.545.851a5.963 5.963 0 0 1-1.815.267Zm-2.96-6.854h5.406c0-1.472-.223-2.602-.67-3.389-.446-.787-1.124-1.18-2.033-1.18-.515 0-.974.199-1.377.596-.404.398-.726.94-.966 1.625s-.36 1.468-.36 2.348Zm11.198 11.423V59.054c0-.762-.107-1.376-.322-1.84-.215-.466-.708-.699-1.48-.699h-.515v-.507h2.317c.652 0 1.145.092 1.48.279.335.186.571.473.708.863.343-.339.806-.656 1.39-.952.584-.296 1.321-.444 2.214-.444 1.03 0 1.887.279 2.574.837.687.559 1.202 1.308 1.544 2.247.344.939.515 1.984.515 3.134 0 1.134-.175 2.175-.527 3.123-.352.947-.889 1.7-1.609 2.258-.721.56-1.639.839-2.755.839-.72 0-1.338-.081-1.853-.242-.515-.16-.97-.334-1.365-.52v5.33h-2.316Zm4.762-5.585c.772 0 1.395-.233 1.866-.698.473-.465.816-1.092 1.03-1.878.215-.787.322-1.663.322-2.627 0-.982-.103-1.862-.309-2.64-.206-.779-.528-1.4-.965-1.866-.438-.466-1-.698-1.687-.698-.703 0-1.269.156-1.698.47a3.77 3.77 0 0 0-1.005 1.053v8.122c.395.187.803.36 1.223.52.421.162.828.242 1.223.242ZM128.971 68.01c-.378 0-.842-.072-1.39-.216-.55-.144-1.09-.448-1.622-.914-.532-.465-.987-1.189-1.364-2.17l-.644-1.65h-7.208l-2.059 4.823h-1.159l7.208-16.753h.772l5.664 13.58c.412.948.806 1.612 1.184 1.993.378.38.926.605 1.647.672v.508a4.819 4.819 0 0 1-.476.089c-.18.025-.365.038-.553.038Zm-11.842-5.965h6.307l-3.089-7.361-3.218 7.36Z" fill="#2D2D2D"/><path fill-rule="evenodd" clip-rule="evenodd" d="M9.122 47.955c37.428-14.097 70.64 10.548 111.964-5.204-39.264 25.435-75.93-3.4-111.964 5.204Z" fill="#000200"/><path fill-rule="evenodd" clip-rule="evenodd" d="M0 79.034v-5.537h3.225v.539H.576v1.76H2.65v.54H.576v2.159h2.938v.54H0Zm7.027.767v-1.306h.46c.328-.455.491-1.07.491-1.847v-1.505h2.39v3.352h.519V79.8h-.577v-.767H7.603v.767h-.576Zm1.527-3.153c0 .758-.145 1.373-.432 1.847h1.67v-2.812H8.554v.965Zm6.768-1.505v2.726l1.9-2.356v-.37h.577v3.891h-.576v-2.727l-1.901 2.357v.37h-.577v-3.89h.577Zm7.344 0v1.534h1.957v-1.534h.577v3.891h-.577v-1.818h-1.957v1.818h-.576v-3.89h.576Zm7.285 2.103c.02.492.145.851.375 1.078.173.17.423.256.749.256.404 0 .681-.085.835-.256.115-.132.221-.313.317-.54l.489.256a2.113 2.113 0 0 1-.46.681c-.25.246-.643.37-1.181.37-.48 0-.854-.132-1.124-.397-.383-.38-.575-.91-.575-1.591 0-.719.172-1.25.519-1.59.287-.285.68-.426 1.18-.426.48 0 .864.141 1.152.426.345.34.519.871.519 1.59v.143H29.95Zm2.19-.54c-.02-.36-.135-.644-.347-.853-.172-.17-.421-.255-.748-.255-.345 0-.614.104-.806.312-.192.209-.289.474-.289.795h2.19Zm5.27-1.563v1.534h1.957v-1.534h.577v3.891h-.577v-1.818h-1.957v1.818h-.576v-3.89h.576Zm7.401 0v2.726l1.901-2.356v-.37h.576v3.891h-.576v-2.727l-1.9 2.357v.37h-.577v-3.89h.576Zm7.257 2.103c.02.492.145.851.375 1.078.173.17.423.256.749.256.404 0 .681-.085.835-.256.115-.132.221-.313.317-.54l.489.256a2.113 2.113 0 0 1-.46.681c-.25.246-.643.37-1.181.37-.48 0-.854-.132-1.124-.397-.383-.38-.575-.91-.575-1.591 0-.719.172-1.25.519-1.59.287-.285.68-.426 1.18-.426.48 0 .864.141 1.152.426.345.34.519.871.519 1.59v.143h-2.795Zm2.19-.54c-.02-.36-.135-.644-.347-.853-.172-.17-.421-.255-.748-.255-.345 0-.614.104-.806.312-.192.209-.289.474-.289.795h2.19Zm11.778-.455a1.608 1.608 0 0 0-.346-.482c-.153-.152-.355-.228-.605-.228-.364 0-.643.094-.835.284-.25.246-.373.654-.373 1.22 0 .626.124 1.06.373 1.308.173.17.423.256.75.256.345 0 .604-.096.776-.285.174-.189.29-.378.347-.568l.489.255c-.134.303-.26.512-.375.626-.307.302-.72.454-1.237.454-.519 0-.913-.132-1.181-.397-.347-.34-.519-.881-.519-1.62 0-.7.172-1.22.519-1.561.307-.303.728-.455 1.266-.455.423 0 .769.132 1.038.398.153.151.287.33.403.539l-.49.256Zm12.354 2.783h-.576v-3.351h-1.9v3.351h-.577v-3.89h3.053v3.89Zm4.896-1.107c.365.435.758.653 1.18.653.308 0 .547-.085.72-.256.25-.246.376-.7.376-1.363 0-.492-.116-.852-.347-1.079a.978.978 0 0 0-.719-.284c-.423 0-.826.198-1.21.596v1.733Zm0-2.784v.512c.423-.378.835-.568 1.238-.568.462 0 .836.141 1.124.426.326.32.489.824.489 1.505 0 .738-.172 1.278-.517 1.619a1.507 1.507 0 0 1-1.096.454c-.518 0-.931-.199-1.238-.596V80h-.576v-4.857h.576Zm7.373 0v2.726l1.9-2.356v-.37h.577v3.891h-.576v-2.727l-1.901 2.357v.37h-.576v-3.89h.576Zm7.372 2.784c.365.435.758.653 1.181.653.307 0 .547-.085.72-.256.249-.246.374-.7.374-1.363 0-.492-.115-.852-.346-1.079a.977.977 0 0 0-.718-.284c-.423 0-.826.198-1.21.596v1.733Zm0-2.784v.512c.423-.378.836-.568 1.239-.568.46 0 .835.141 1.123.426.326.32.489.824.489 1.505 0 .738-.172 1.278-.517 1.619a1.508 1.508 0 0 1-1.095.454c-.519 0-.932-.199-1.239-.596V80h-.576v-4.857h.576Zm8.323.398c-.288 0-.547.114-.777.341-.231.227-.345.624-.345 1.193 0 .568.114.965.345 1.192.23.228.489.342.777.342.288 0 .547-.114.777-.342.231-.227.347-.624.347-1.192 0-.569-.116-.966-.347-1.193-.23-.227-.489-.341-.777-.341Zm-1.21 0a1.66 1.66 0 0 1 1.21-.483c.48 0 .883.162 1.21.483.326.322.489.833.489 1.534 0 .7-.163 1.211-.489 1.534a1.66 1.66 0 0 1-1.21.482 1.66 1.66 0 0 1-1.21-.482c-.326-.323-.489-.834-.489-1.534 0-.7.163-1.212.489-1.534Zm6.711 4.26v-1.306h.46c.328-.455.491-1.07.491-1.847v-1.505h2.39v3.352h.518V79.8h-.576v-.767h-2.707v.767h-.576Zm1.526-3.153c0 .758-.144 1.373-.432 1.847h1.67v-2.812h-1.238v.965Zm7.719-1.107c-.289 0-.548.114-.778.341-.231.227-.345.624-.345 1.193 0 .568.114.965.345 1.192.23.228.489.342.778.342.287 0 .547-.114.776-.342.232-.227.347-.624.347-1.192 0-.569-.115-.966-.347-1.193-.229-.227-.489-.341-.776-.341Zm-1.211 0c.328-.321.73-.483 1.211-.483.479 0 .882.162 1.209.483.327.322.489.833.489 1.534 0 .7-.162 1.211-.489 1.534-.327.32-.73.482-1.209.482-.481 0-.883-.161-1.211-.482-.325-.323-.489-.834-.489-1.534 0-.7.164-1.212.489-1.534Zm7.056-.398h.577v2.726l1.901-2.356v-.37H130v3.891h-.576v-2.727l-1.901 2.357v.37h-.577v-3.89Zm.894-1.477a.786.786 0 0 0 .201.313c.078.076.221.114.432.114s.356-.038.432-.114a.786.786 0 0 0 .201-.313h.519c-.076.247-.182.436-.317.568-.172.171-.451.256-.835.256-.384 0-.662-.085-.835-.256-.134-.132-.239-.32-.317-.568h.519ZM97.347 0c-2.608 5.622-4.678 15.348-8.496 17.135 1.303.864 3.228.187 4.408-.222-.63 1.186-1.652 2.352-2.868 3.367l-1.054.702a31.554 31.554 0 0 0-2.234-3.807.921.921 0 0 0-.387-.553 31.94 31.94 0 0 0-3.542-4.144 32.2 32.2 0 0 0-6.456-4.927.936.936 0 0 0-.833-.503l-.064.001a32.328 32.328 0 0 0-14.71-3.848.94.94 0 0 0-1.09-.005 32.343 32.343 0 0 0-14.873 3.81.937.937 0 0 0-.696.384 32.221 32.221 0 0 0-6.735 5.087c-4.234 4.175-7.292 9.511-8.643 15.481a.913.913 0 0 0-.234.475c-.988-.177-2.175-1.057-2.571-2.233.269.027 1.729.462 2.525.091-1.922-.556-3.965-8.069-3.807-10.557-1.636 3.527-2.935 9.632-5.33 10.752.817.543 2.024.118 2.764-.139-1.132 1.652-2.527 3.304-4.384 3.678.252.672 1.366 1.094 2.379 1.072-.38 1.506-3.886 3.76-5.413 4.22.3.756 1.596 1.685 2.787 1.797-1.304 2.243-3.297 4.116-5.46 5.897 6.153-1.975 12.2-2.952 18.197-3.29a.908.908 0 0 0-.147-1.01l2.988-9.217a.922.922 0 0 0 .215.006l4.33 9.556a.92.92 0 0 0-.347.542c.612.011 1.225.028 1.837.049a.912.912 0 0 0-.242-.49l6.043-9.028.01.15.013.151.002.017c.372 4.003 2.331 7.552 5.25 10.034 1.099.118 2.198.245 3.297.378a13.743 13.743 0 0 1-2.74-1.988h.01a13.42 13.42 0 0 1-4.2-8.219l-.02-.177-.015-.135-.013-.144-.016-.206-.008-.136-.01-.183-.009-.228v-.04l-.001-.004v-.037a9.92 9.92 0 0 1-.005-.304v-.041l.003-.258.004-.143.004-.14.016-.29.006-.107.015-.182.008-.085c.422-4.585 3.165-8.509 7.062-10.62l-.015-.002a13.803 13.803 0 0 1 6.608-1.67 13.77 13.77 0 0 1 9.427 3.702l-.011-.002a13.418 13.418 0 0 1 4.201 8.22l.02.177.014.135.013.144.016.207.008.136.01.182.009.229.001.039V28.73c.004.101.004.203.004.304v.041l-.004.259-.003.143-.005.14-.015.289-.007.107-.014.182-.008.085c-.422 4.586-3.165 8.51-7.062 10.62l.013.002c-1.016.552-2.11.981-3.263 1.266 1.12.15 2.24.298 3.364.444 4.483-2.16 7.736-6.418 8.444-11.477l.005-.032c.03-.208.053-.417.073-.627l.011-.123.021-.268.002-.02 6.08 10.984a.911.911 0 0 0-.204.574c0 .509.418.921.935.921a.928.928 0 0 0 .934-.921.911.911 0 0 0-.275-.653l4.384-11.427c.04.005.08.008.121.008l.072-.003 3.04 9.38a.922.922 0 0 0-.601.86c0 .452.329.827.762.907a30.039 30.039 0 0 1-.97 3.71c9.07.001 18.42-1.127 28.217-4.456-2.803-.525-7.933-1.917-9.408-5.88 1.899-.177 3.965-1.658 4.443-2.861-2.436-.733-8.019-4.327-8.627-6.728 1.615.036 3.388-.636 3.79-1.707-2.851-1.155-5.713-3.466-6.986-5.86 1.18.409 3.104 1.086 4.407.221C102.02 15.348 97.578 5.4 97.343 0h.004Zm-6.295 29.503h-.042a.933.933 0 0 1-.897-.661h-1.5a.924.924 0 0 1-.43.578l3.066 9.453.023.003a30.586 30.586 0 0 0-.22-9.373Zm-.962-1.086a.927.927 0 0 1 .586-.696 30.257 30.257 0 0 0-3.914-9.154l1.052 9.147c.392.046.71.33.799.703h1.477Zm-59.886-.647c.246.13.427.367.478.647h1.898a.93.93 0 0 1 .736-.739l1.099-9.548a30.27 30.27 0 0 0-4.211 9.64Zm.456 1.072a.932.932 0 0 1-.82.659 30.443 30.443 0 0 0-.277 8.911.946.946 0 0 1 .447.05l2.958-9.122a.925.925 0 0 1-.365-.499H30.66Zm51.878 11.86c.116 0 .226.02.328.057l4.316-11.364a.921.921 0 0 1-.389-.553h-10.41a.923.923 0 0 1-.49.65l6.201 11.32a.94.94 0 0 1 .444-.11Zm-6.68-12.864a.928.928 0 0 1 .504.579h10.431a.91.91 0 0 1 .222-.411l-5.923-8.612a.945.945 0 0 1-.58.028l-4.654 8.416Zm-6.38-11.703c.104 0 .205.017.299.049l5.289-7.77a.912.912 0 0 1-.097-.632 31.258 31.258 0 0 0-13.524-3.528.895.895 0 0 1-.078.164l7.556 11.896a.94.94 0 0 1 .554-.179Zm.663.273a.913.913 0 0 1 .261.785l9.477 1.03a.926.926 0 0 1 .311-.422l-4.072-8.939a.956.956 0 0 1-.753-.128l-5.224 7.674Zm16.158 1.894a.93.93 0 0 1-1.036-.828l-3.57 1.014v.045c0 .24-.093.46-.247.624l5.924 8.612.017-.006-1.088-9.461Zm-.96-1.29c.043-.095.101-.18.172-.255a30.912 30.912 0 0 0-3.084-3.542 31.158 31.158 0 0 0-5.91-4.568l-.02.018 4.085 8.963a.936.936 0 0 1 .992.453l3.765-1.07ZM61.06 4.728a.94.94 0 0 1-.992 0L52.984 15.88a15.393 15.393 0 0 1 7.48-1.924c2.845 0 5.509.767 7.79 2.102L61.06 4.729Zm-1.3-.311a.892.892 0 0 1-.08-.17 31.281 31.281 0 0 0-13.565 3.435.912.912 0 0 1-.082.687l5.382 7.91a.948.948 0 0 1 .777.053l7.568-11.915Zm-8.95 12.766v-.042c0-.242.094-.462.249-.627l-5.325-7.823a.939.939 0 0 1-.71.138L40.937 17.8a.925.925 0 0 1 .312.423l9.562-1.04Zm-5.682 12.29a.923.923 0 0 1-.454-.632H34.397a.924.924 0 0 1-.405.523l4.313 9.519a.924.924 0 0 1 .497.04l6.325-9.45Zm-.433-1.057a.927.927 0 0 1 .52-.587v-.006l.002-.011v-.01l.001-.012.001-.01v-.012l.002-.01v-.011l-4.606-8.33a.949.949 0 0 1-.58-.028l-5.872 8.538c.13.13.223.297.257.485l10.275.004ZM35.597 16.47a.917.917 0 0 1 .302.573l3.653 1.038a.937.937 0 0 1 .992-.453l4.09-8.977a.923.923 0 0 1-.105-.095 31.152 31.152 0 0 0-8.932 7.914Zm.253.999a.934.934 0 0 1-.996.601l-1.107 9.624.05.016 5.882-8.552a.912.912 0 0 1-.246-.624l.001-.045-3.584-1.02Zm44.284 1.75a.916.916 0 0 1-.303-.574l-9.369-1.02c2.802 2.389 4.715 5.762 5.186 9.575l.013.108 4.473-8.09Zm-38.839-.574a.915.915 0 0 1-.303.574l4.31 7.796.005-.033.02-.142.013-.084.007-.038c.565-3.601 2.42-6.782 5.087-9.067l-9.139.994Z" fill="#2D2D2D"/></svg>